<svg width="10" height="17" viewBox="0 0 10 17" fill="none" xmlns="http://www.w3.org/2000/svg">
<path d="M8.5 0.989014H1.5C0.672848 0.989014 0 1.66163 0 2.4885V15.4841C0 16.3109 0.672848 16.9835 1.5 16.9835H8.5C9.32715 16.9835 10 16.3109 10 15.4841V2.4885C10 1.66163 9.32715 0.989014 8.5 0.989014ZM1.5 1.98867H8.5C8.77588 1.98867 9 2.21272 9 2.4885V12.9849H1V2.4885C1 2.21272 1.22412 1.98867 1.5 1.98867ZM8.5 15.9839H1.5C1.22412 15.9839 1 15.7598 1 15.4841V13.9846H9V15.4841C9 15.7598 8.77588 15.9839 8.5 15.9839Z" fill="#757575"/>
<path d="M2.35355 14.7233C2.54882 14.9056 2.54882 15.2013 2.35355 15.3836C2.15828 15.566 1.84172 15.566 1.64645 15.3836C1.45118 15.2013 1.45118 14.9056 1.64645 14.7233C1.84172 14.541 2.15828 14.541 2.35355 14.7233Z" fill="#757575"/>
</svg>
