<svg aria-hidden="true" style="position:absolute;width:0;height:0;overflow:hidden" xmlns="http://www.w3.org/2000/svg">
    <defs>

        <symbol id="icon-antenna" viewBox="0 0 32 32">
            <path fill="#212121" style="fill: var(--color1, #212121)"
                d="M30.773 22.098l-8.443-8.505 0.937-4.615c0.242 0.094 0.499 0.144 0.758 0.146h0.006c1.192 0.014 2.17-0.941 2.184-2.133s-0.941-2.17-2.133-2.184c-1.192-0.014-2.17 0.941-2.184 2.133-0.003 0.255 0.039 0.509 0.125 0.749l-4.96 0.605-8.091-8.133c-0.099-0.101-0.235-0.159-0.377-0.16-0.14 0.001-0.274 0.056-0.373 0.155l-1.513 1.504c-0.208 0.208-0.208 0.546 0 0.754l0.814 0.826c-3.153 5.798-2.129 12.978 2.519 17.663 0.043 0.041 0.092 0.074 0.146 0.098-0.034 0.18-0.051 0.364-0.052 0.547v6.187h-6.4c-1.472 0.002-2.665 1.195-2.667 2.667v1.067c0 0.295 0.239 0.533 0.533 0.533h24.533c0.295 0 0.533-0.239 0.533-0.533v-1.067c-0.002-1.472-1.195-2.665-2.667-2.667h-6.4v-2.742c1.003 0.21 2.024 0.317 3.049 0.32 2.458-0.003 4.877-0.615 7.040-1.783l0.818 0.823c0.099 0.101 0.235 0.159 0.377 0.16 0.14-0.001 0.274-0.056 0.373-0.155l1.513-1.504c0.208-0.208 0.208-0.546 0-0.754zM23.28 6.233c0.418-0.415 1.093-0.414 1.508 0.004s0.414 1.093-0.004 1.508c-0.2 0.199-0.47 0.31-0.752 0.31h-0.003c-0.589-0.003-1.064-0.483-1.061-1.072 0.002-0.282 0.115-0.552 0.314-0.751h-0.002zM22.024 9.738l-0.598 2.946-1.175-1.182 1.774-1.763zM21.419 8.836l-1.92 1.909-1.485-1.493 3.405-0.415zM24.004 28.8c0.884 0 1.6 0.716 1.6 1.6v0.533h-23.467v-0.533c0-0.884 0.716-1.6 1.6-1.6h20.267zM16.537 26.667v1.067h-5.333v-1.067h5.333zM11.204 25.6v-4.053c0-1.294 1.196-2.347 2.667-2.347s2.667 1.053 2.667 2.347v4.053h-5.333zM17.604 23.904v-2.357c0-1.882-1.675-3.413-3.733-3.413-1.331-0.020-2.576 0.657-3.281 1.786-4.058-4.274-4.971-10.645-2.279-15.887l18.602 18.708c-2.872 1.461-6.165 1.873-9.309 1.163zM28.893 23.22l-21.057-21.181 0.755-0.752 7.935 7.98c0.004 0 0.006 0.007 0.010 0.010l13.115 13.191-0.757 0.752z">
            </path>
            <path fill="#2196f3" style="fill: var(--color2, #2196f3)"
                d="M13.876 20.267h-0.005c-0.884-0.001-1.601 0.714-1.602 1.598s0.714 1.601 1.598 1.602h0.005c0.884 0.001 1.601-0.714 1.602-1.598s-0.714-1.601-1.598-1.602zM14.249 22.245c-0.1 0.1-0.236 0.156-0.378 0.155-0.295-0.002-0.532-0.242-0.531-0.536 0.001-0.141 0.057-0.276 0.157-0.375s0.233-0.154 0.373-0.155c0.295 0.002 0.532 0.241 0.53 0.536-0.001 0.141-0.057 0.276-0.157 0.375h0.005z">
            </path>
        </symbol>
        <symbol id="icon-astronaut" viewBox="0 0 32 32">
            <path fill="#2196f3" style="fill: var(--color2, #2196f3)"
                d="M31.974 4.524c-0.063-0.193-0.229-0.333-0.43-0.363l-1.91-0.278-0.855-1.731c-0.179-0.365-0.777-0.365-0.956 0l-0.855 1.731-1.91 0.278c-0.201 0.029-0.367 0.17-0.431 0.363-0.062 0.193-0.011 0.405 0.135 0.547l1.383 1.348-0.326 1.903c-0.034 0.2 0.048 0.402 0.212 0.522 0.166 0.121 0.382 0.135 0.562 0.040l1.709-0.899 1.709 0.899c0.078 0.041 0.164 0.061 0.249 0.061 0.11 0 0.221-0.034 0.314-0.102 0.164-0.119 0.246-0.322 0.212-0.522l-0.326-1.903 1.383-1.348c0.145-0.142 0.197-0.354 0.135-0.547zM29.511 5.851c-0.125 0.122-0.183 0.299-0.153 0.472l0.191 1.114-1-0.526c-0.078-0.041-0.163-0.061-0.249-0.061s-0.17 0.020-0.249 0.061l-1.001 0.526 0.191-1.114c0.030-0.173-0.028-0.349-0.153-0.472l-0.81-0.789 1.119-0.163c0.174-0.025 0.324-0.134 0.402-0.292l0.5-1.013 0.5 1.013c0.078 0.157 0.228 0.267 0.402 0.292l1.119 0.163-0.809 0.789z">
            </path>
            <path fill="#2196f3" style="fill: var(--color2, #2196f3)" d="M26.134 20.522h-1.067v1.067h1.067v-1.067z">
            </path>
            <path fill="#2196f3" style="fill: var(--color2, #2196f3)" d="M26.134 22.656h-1.067v1.067h1.067v-1.067z">
            </path>
            <path fill="#2196f3" style="fill: var(--color2, #2196f3)" d="M27.2 21.589h-1.067v1.067h1.067v-1.067z">
            </path>
            <path fill="#2196f3" style="fill: var(--color2, #2196f3)" d="M25.067 21.589h-1.067v1.067h1.067v-1.067z">
            </path>
            <path fill="#2196f3" style="fill: var(--color2, #2196f3)" d="M22.4 26.389h-1.067v1.067h1.067v-1.067z">
            </path>
            <path fill="#2196f3" style="fill: var(--color2, #2196f3)" d="M22.4 28.522h-1.067v1.067h1.067v-1.067z">
            </path>
            <path fill="#2196f3" style="fill: var(--color2, #2196f3)" d="M23.467 27.456h-1.067v1.067h1.067v-1.067z">
            </path>
            <path fill="#2196f3" style="fill: var(--color2, #2196f3)" d="M21.333 27.456h-1.067v1.067h1.067v-1.067z">
            </path>
            <path fill="#2196f3" style="fill: var(--color2, #2196f3)" d="M16 24.256h-1.067v1.067h1.067v-1.067z"></path>
            <path fill="#2196f3" style="fill: var(--color2, #2196f3)" d="M16 26.389h-1.067v1.067h1.067v-1.067z"></path>
            <path fill="#2196f3" style="fill: var(--color2, #2196f3)" d="M17.067 25.322h-1.067v1.067h1.067v-1.067z">
            </path>
            <path fill="#2196f3" style="fill: var(--color2, #2196f3)" d="M14.933 25.322h-1.067v1.067h1.067v-1.067z">
            </path>
            <path fill="#2196f3" style="fill: var(--color2, #2196f3)" d="M5.867 6.122h-1.067v1.067h1.067v-1.067z">
            </path>
            <path fill="#2196f3" style="fill: var(--color2, #2196f3)" d="M5.867 8.255h-1.067v1.067h1.067v-1.067z">
            </path>
            <path fill="#2196f3" style="fill: var(--color2, #2196f3)" d="M6.933 7.189h-1.067v1.067h1.067v-1.067z">
            </path>
            <path fill="#2196f3" style="fill: var(--color2, #2196f3)" d="M4.8 7.189h-1.067v1.067h1.067v-1.067z"></path>
            <path fill="#212121" style="fill: var(--color1, #212121)"
                d="M24.715 14.159c-0.287-0.388-0.709-0.637-1.188-0.705-0.481-0.068-0.956 0.058-1.34 0.352l-1.252 0.96-1.898 1.417-1.358-0.541c2.421-1.086 4.114-3.508 4.114-6.32 0-3.823-3.123-6.933-6.961-6.933s-6.961 3.11-6.961 6.933c0 1.386 0.414 2.674 1.12 3.758l-2.764-0.024c-0.002 0-0.003 0-0.005 0-0.009 0-0.015 0.004-0.023 0.005-0.053 0.002-0.105 0.013-0.155 0.031-0.013 0.005-0.026 0.008-0.038 0.013-0.006 0.003-0.013 0.003-0.019 0.006l-3.233 1.596c-0.001 0-0.001 0-0.001 0.001l-1.893 0.911c-0.021 0.009-0.042 0.021-0.063 0.035-0.755 0.502-1.012 1.489-0.598 2.295 0.22 0.429 0.595 0.745 1.056 0.889 0.178 0.055 0.359 0.083 0.539 0.083 0.29 0 0.577-0.071 0.839-0.211l1.388-0.738 2.264-1.169 1.357-0.008-5.442 5.416c-0.001 0.001-0.001 0.001-0.002 0.001l-1.339 1.333c-0.316 0.315-0.49 0.732-0.49 1.178s0.174 0.863 0.49 1.179c0.325 0.323 0.752 0.485 1.179 0.485s0.854-0.162 1.18-0.485l1.314-1.309 1.741-1.3 0.901 0.897-1.762 1.754c-0 0.001-0.001 0.001-0.002 0.001l-1.339 1.333c-0.316 0.315-0.49 0.732-0.49 1.178s0.174 0.863 0.49 1.179c0.325 0.323 0.753 0.485 1.18 0.485s0.855-0.162 1.18-0.485l3.482-3.467c0.001-0.001 0.001-0.001 0.001-0.002l1.010-1-0.004-0.004c0.006-0.006 0.015-0.009 0.022-0.015l5.166-5.658 3.471 0.494c0.025 0.004 0.050 0.005 0.075 0.005 0.065 0 0.127-0.015 0.187-0.038 0.018-0.006 0.033-0.015 0.050-0.023 0.019-0.010 0.039-0.015 0.058-0.027l3.213-2.133c0.012-0.008 0.018-0.021 0.029-0.029 0.013-0.010 0.029-0.014 0.041-0.026l1.271-1.191c0.662-0.62 0.753-1.635 0.212-2.362zM2.13 17.77c-0.173 0.093-0.37 0.111-0.558 0.052-0.187-0.058-0.338-0.186-0.427-0.358-0.161-0.314-0.068-0.695 0.214-0.902l1.314-0.632 0.449 1.312-0.992 0.528zM5.628 15.942l-1.548 0.8-0.439-1.283 2.027-1.001-0.040 1.484zM20.727 9.322c0 0.918-0.219 1.785-0.599 2.559l-4.181-1.899c-0.044-0.573-0.341-1.075-0.788-1.388l1.464-4.86c2.378 0.756 4.105 2.974 4.105 5.588zM8.938 9.322c0-3.235 2.644-5.867 5.894-5.867 0.253 0 0.5 0.021 0.745 0.052l-1.432 4.754c-0.019-0.001-0.037-0.006-0.057-0.006-1.033 0-1.873 0.837-1.873 1.867s0.84 1.867 1.873 1.867c0.694 0 1.294-0.383 1.618-0.945l3.862 1.755c-1.075 1.446-2.795 2.39-4.737 2.39-3.25 0-5.894-2.632-5.894-5.867zM14.894 10.122c0 0.441-0.362 0.8-0.806 0.8s-0.806-0.359-0.806-0.8c0-0.441 0.362-0.8 0.806-0.8s0.806 0.359 0.806 0.8zM2.465 25.146c-0.236 0.234-0.619 0.234-0.854 0.001-0.114-0.114-0.176-0.263-0.176-0.423s0.062-0.309 0.176-0.421l0.962-0.958 0.851 0.848-0.959 0.955zM5.679 28.88c-0.236 0.234-0.619 0.235-0.855 0.001-0.114-0.114-0.176-0.263-0.176-0.423s0.062-0.309 0.176-0.421l0.963-0.959 0.852 0.848-0.96 0.955zM9.16 25.411c-0.001 0-0.001 0-0.002 0.001l-1.765 1.76-0.852-0.848 1.763-1.755c0 0 0 0 0-0s0.001-0.001 0.002-0.001c0.040-0.040 0.065-0.088 0.090-0.135 0.007-0.014 0.020-0.026 0.026-0.040 0.017-0.041 0.019-0.085 0.026-0.129 0.003-0.025 0.014-0.047 0.014-0.073 0-0.036-0.013-0.070-0.020-0.106-0.006-0.032-0.006-0.065-0.019-0.095-0.020-0.050-0.055-0.094-0.091-0.138-0.010-0.012-0.014-0.027-0.025-0.038 0 0 0 0-0.001 0s-0.001-0.002-0.001-0.002l-1.607-1.6c-0.017-0.017-0.039-0.024-0.058-0.038-0.028-0.022-0.055-0.042-0.087-0.058-0.030-0.015-0.061-0.024-0.093-0.033-0.034-0.010-0.067-0.017-0.103-0.020-0.033-0.002-0.063 0.001-0.095 0.005-0.036 0.004-0.069 0.009-0.104 0.020-0.034 0.011-0.063 0.027-0.094 0.045-0.020 0.011-0.042 0.015-0.061 0.029l-1.773 1.324-0.901-0.897 2.399-2.386 4.361 4.289-0.928 0.919zM15.979 18.394c-0.015-0.002-0.030 0.004-0.045 0.003-0.039-0.002-0.076 0.001-0.115 0.007-0.030 0.005-0.059 0.011-0.088 0.021-0.034 0.012-0.065 0.028-0.097 0.047-0.030 0.018-0.057 0.037-0.083 0.061-0.013 0.011-0.028 0.017-0.040 0.029l-4.698 5.146-4.328-4.257 2.833-2.818c0.209-0.208 0.21-0.546 0.002-0.755-0.105-0.105-0.243-0.157-0.381-0.156v-0.001l-2.219 0.013 0.028-1.607 3.104 0.027c1.265 1.294 3.029 2.101 4.981 2.101 0.437 0 0.864-0.045 1.279-0.123 0.040 0.032 0.079 0.065 0.13 0.085l2.41 0.96 0.331 1.644-3.003-0.427zM20.020 18.572l-0.313-1.558 1.446-1.080 0.947 1.257-2.080 1.381zM23.774 15.741l-0.838 0.785-0.931-1.236 0.831-0.637c0.155-0.119 0.351-0.168 0.543-0.143 0.193 0.027 0.364 0.128 0.48 0.284 0.217 0.292 0.18 0.699-0.085 0.947z">
            </path>
            <path fill="#212121" style="fill: var(--color1, #212121)"
                d="M13.602 18.544l-2.143-2.133c-0.207-0.207-0.545-0.207-0.753 0l-2.142 2.133c-0.1 0.101-0.157 0.236-0.157 0.378s0.056 0.278 0.157 0.378l2.142 2.133c0.104 0.103 0.241 0.155 0.377 0.155s0.273-0.052 0.376-0.155l2.143-2.133c0.1-0.1 0.157-0.236 0.157-0.378s-0.057-0.278-0.157-0.378zM11.083 20.303l-1.387-1.381 1.387-1.381 1.387 1.381-1.387 1.381z">
            </path>
            <path fill="#212121" style="fill: var(--color1, #212121)"
                d="M17.164 5.071l-0.258 1.036c0.071 0.018 1.738 0.452 1.738 2.149h1.067c-0-2.017-1.666-2.965-2.547-3.185z">
            </path>
            <path fill="#212121" style="fill: var(--color1, #212121)" d="M19.711 9.322h-1.067v1.067h1.067v-1.067z">
            </path>
        </symbol>
        <symbol id="icon-clock" viewBox="0 0 32 32">
            <path fill="#212121" style="fill: var(--color1, #212121)"
                d="M31.297 15.301c-0.002-8.452-6.855-15.303-15.308-15.301s-15.303 6.855-15.301 15.308c0.001 6.658 4.307 12.551 10.649 14.576 0.061 0.019 0.124 0.029 0.187 0.029 0.121-0 0.239-0.032 0.342-0.094 0.135-0.080 0.236-0.207 0.283-0.356l3.865-12.25c1.057-0.005 1.909-0.866 1.903-1.923s-0.866-1.909-1.923-1.903c-0.284 0.001-0.565 0.067-0.82 0.191l-5.106-5.107c-0.253-0.245-0.657-0.238-0.902 0.016-0.239 0.247-0.239 0.639 0 0.886l5.103 5.109c-0.392 0.799-0.168 1.764 0.536 2.309l-3.683 11.673c-7.278-2.681-11.004-10.754-8.323-18.032s10.754-11.004 18.032-8.323 11.004 10.754 8.323 18.032c-1.31 3.556-4.001 6.431-7.462 7.973l-0.398-1.874c-0.073-0.344-0.411-0.565-0.756-0.492-0.109 0.023-0.209 0.074-0.292 0.148l-3.837 3.426c-0.263 0.234-0.287 0.637-0.052 0.9 0.076 0.085 0.174 0.149 0.283 0.184l4.899 1.563c0.335 0.108 0.694-0.077 0.802-0.412 0.034-0.106 0.040-0.219 0.017-0.328l-0.391-1.839c5.664-2.388 9.342-7.942 9.329-14.089zM15.992 14.664c0.352 0 0.638 0.286 0.638 0.638s-0.286 0.638-0.638 0.638c-0.352 0-0.638-0.285-0.638-0.638s0.285-0.638 0.638-0.638zM18.093 29.528l2.184-1.948 0.603 2.84-2.787-0.892z">
            </path>
            <path fill="#2196f3" style="fill: var(--color2, #2196f3)"
                d="M15.354 3.185v1.275c0 0.352 0.285 0.638 0.638 0.638s0.638-0.285 0.638-0.638v-1.275c0-0.352-0.286-0.638-0.638-0.638s-0.638 0.286-0.638 0.638z">
            </path>
            <path fill="#2196f3" style="fill: var(--color2, #2196f3)"
                d="M3.876 14.664c-0.352 0-0.638 0.286-0.638 0.638s0.285 0.638 0.638 0.638h1.275c0.352 0 0.638-0.285 0.638-0.638s-0.285-0.638-0.638-0.638h-1.275z">
            </path>
            <path fill="#2196f3" style="fill: var(--color2, #2196f3)"
                d="M28.108 15.939c0.352 0 0.638-0.285 0.638-0.638s-0.285-0.638-0.638-0.638h-1.275c-0.352 0-0.638 0.286-0.638 0.638s0.286 0.638 0.638 0.638h1.275z">
            </path>
        </symbol>
        <symbol id="icon-diagram" viewBox="0 0 32 32">
            <path fill="#2196f3" style="fill: var(--color2, #2196f3)" d="M14.926 14.965h1.066v4.798h-1.066v-4.797z">
            </path>
            <path fill="#2196f3" style="fill: var(--color2, #2196f3)" d="M19.19 17.097h1.066v2.665h-1.066v-2.665z">
            </path>
            <path fill="#2196f3" style="fill: var(--color2, #2196f3)" d="M10.661 18.696h1.066v1.066h-1.066v-1.066z">
            </path>
            <path fill="#2196f3" style="fill: var(--color2, #2196f3)" d="M7.463 18.163h1.066v1.599h-1.066v-1.599z">
            </path>
            <path fill="#212121" style="fill: var(--color1, #212121)"
                d="M1.599 28.291h25.587c0.883 0 1.599-0.716 1.599-1.599v-2.132c0-0.883-0.716-1.599-1.599-1.599h-0.533v-13.293l3.028-2.868c0.703 0.346 1.553 0.136 2.013-0.499s0.396-1.508-0.152-2.068-1.42-0.644-2.065-0.198c-0.644 0.446-0.873 1.292-0.542 2.002l-2.281 2.163v-1.23c0-0.883-0.716-1.599-1.599-1.599h-21.322c-0.883 0-1.599 0.716-1.599 1.599v15.992h-0.533c-0.883 0-1.599 0.716-1.599 1.599v2.132c0 0.883 0.716 1.599 1.599 1.599zM30.384 4.837c0.294 0 0.533 0.239 0.533 0.533s-0.239 0.533-0.533 0.533c-0.294 0-0.533-0.239-0.533-0.533s0.239-0.533 0.533-0.533zM3.198 6.969c0-0.294 0.239-0.533 0.533-0.533h21.322c0.294 0 0.533 0.239 0.533 0.533v2.239l-1.066 1.013v-2.186c0-0.294-0.239-0.533-0.533-0.533h-19.19c-0.294 0-0.533 0.239-0.533 0.533v13.326c0 0.294 0.239 0.533 0.533 0.533h19.19c0.294 0 0.533-0.239 0.533-0.533v-9.674l1.066-1.010v12.284h-22.388v-15.992zM7.996 13.899c-0.721-0.002-1.354 0.478-1.546 1.174s0.105 1.433 0.725 1.801c0.62 0.368 1.41 0.276 1.928-0.226l1.853 0.93c0.215 0.108 0.476 0.057 0.636-0.123l3.939-4.431 3.872 2.901c0.208 0.156 0.498 0.139 0.686-0.039l3.365-3.188v8.131h-18.124v-12.26h18.124v2.66l-3.771 3.572-3.904-2.927c-0.222-0.166-0.534-0.135-0.718 0.072l-3.993 4.493-1.493-0.746c0.011-0.064 0.018-0.129 0.020-0.193 0-0.883-0.716-1.599-1.599-1.599zM8.529 15.498c0 0.294-0.239 0.533-0.533 0.533s-0.533-0.239-0.533-0.533c0-0.294 0.239-0.533 0.533-0.533s0.533 0.239 0.533 0.533zM11.727 24.027h5.331v0.533c0 0.294-0.239 0.533-0.533 0.533h-4.264c-0.294 0-0.533-0.239-0.533-0.533v-0.533zM1.066 24.56c0-0.294 0.239-0.533 0.533-0.533h9.062v0.533c0 0.883 0.716 1.599 1.599 1.599h4.264c0.883 0 1.599-0.716 1.599-1.599v-0.533h9.062c0.294 0 0.533 0.239 0.533 0.533v2.132c0 0.294-0.239 0.533-0.533 0.533h-25.587c-0.294 0-0.533-0.239-0.533-0.533v-2.132z">
            </path>
        </symbol>
        <symbol id="icon-facebook" viewBox="0 0 32 32">
            <path
                d="M21.329 5.313h2.921v-5.088c-0.504-0.069-2.237-0.225-4.256-0.225-4.212 0-7.097 2.649-7.097 7.519v4.481h-4.648v5.688h4.648v14.312h5.699v-14.311h4.46l0.708-5.688h-5.169v-3.919c0.001-1.644 0.444-2.769 2.735-2.769z" />
        </symbol>
        <symbol id="icon-instagram" viewBox="0 0 32 32">
            <path
                d="M31.969 9.408c-0.075-1.7-0.35-2.869-0.744-3.882-0.406-1.075-1.032-2.038-1.851-2.838-0.8-0.813-1.769-1.444-2.832-1.844-1.019-0.394-2.182-0.669-3.882-0.744-1.713-0.081-2.257-0.1-6.601-0.1s-4.888 0.019-6.595 0.094c-1.7 0.075-2.869 0.35-3.882 0.744-1.075 0.406-2.038 1.031-2.838 1.85-0.813 0.8-1.444 1.769-1.844 2.832-0.394 1.019-0.669 2.182-0.744 3.882-0.081 1.713-0.1 2.257-0.1 6.601s0.019 4.888 0.094 6.595c0.075 1.7 0.35 2.869 0.744 3.882 0.406 1.075 1.038 2.038 1.85 2.838 0.8 0.813 1.769 1.444 2.832 1.844 1.019 0.394 2.182 0.669 3.882 0.744 1.706 0.075 2.25 0.094 6.595 0.094s4.888-0.019 6.595-0.094c1.7-0.075 2.869-0.35 3.882-0.744 2.151-0.832 3.851-2.532 4.682-4.682 0.394-1.019 0.669-2.182 0.744-3.882 0.075-1.707 0.094-2.251 0.094-6.595s-0.006-4.888-0.081-6.595zM29.087 22.473c-0.069 1.563-0.331 2.407-0.55 2.969-0.538 1.394-1.644 2.5-3.038 3.038-0.563 0.219-1.413 0.481-2.969 0.55-1.688 0.075-2.194 0.094-6.464 0.094s-4.782-0.019-6.464-0.094c-1.563-0.069-2.407-0.331-2.969-0.55-0.694-0.256-1.325-0.663-1.838-1.194-0.531-0.519-0.938-1.144-1.194-1.838-0.219-0.563-0.481-1.413-0.55-2.969-0.075-1.688-0.094-2.194-0.094-6.464s0.019-4.782 0.094-6.464c0.069-1.563 0.331-2.407 0.55-2.969 0.256-0.694 0.663-1.325 1.2-1.838 0.519-0.531 1.144-0.938 1.838-1.194 0.563-0.219 1.413-0.481 2.969-0.55 1.688-0.075 2.194-0.094 6.464-0.094 4.276 0 4.782 0.019 6.464 0.094 1.563 0.069 2.407 0.331 2.969 0.55 0.694 0.256 1.325 0.662 1.838 1.194 0.531 0.519 0.938 1.144 1.194 1.838 0.219 0.563 0.481 1.413 0.55 2.969 0.075 1.688 0.094 2.194 0.094 6.464s-0.019 4.77-0.094 6.458z" />
            <path
                d="M16.059 7.783c-4.538 0-8.22 3.682-8.22 8.22s3.682 8.22 8.22 8.22c4.539 0 8.22-3.682 8.22-8.22s-3.682-8.22-8.22-8.22zM16.059 21.335c-2.944 0-5.332-2.388-5.332-5.332s2.388-5.332 5.332-5.332c2.944 0 5.332 2.388 5.332 5.332s-2.388 5.332-5.332 5.332zM26.524 7.458c0 1.06-.859 1.919-1.919 1.919s-1.919-.859-1.919-1.919c0-1.06.859-1.919 1.919-1.919s1.919.859 1.919 1.919z" />
        </symbol>
        <symbol id="icon-linkedin" viewBox="0 0 32 32">
            <path
                d="M31.992 32v-.001h.008v-11.736c0-5.741-1.236-10.164-7.948-10.164-3.227 0-5.392 1.771-6.276 3.449h-.093v-2.913h-6.364v21.364h6.627v-10.579c0-2.785.528-5.479 3.977-5.479 3.399 0 3.449 3.179 3.449 5.657v10.401h6.62zM.528 10.636h6.635v21.364h-6.635v-21.364zM3.843 0c-2.121 0-3.843 1.721-3.843 3.843s1.721 3.879 3.843 3.879c2.121 0 3.843-1.757 3.843-3.879-.001-2.121-1.723-3.843-3.843-3.843v0z" />
        </symbol>
        <symbol id="icon-logo-1" viewBox="0 0 57 32">
            <path
                d="M20.267 3.733l3.738 3.538-6.938-0.004v17.166h18.133v-6.564l3.733 3.534v-17.671h-18.667zM35.036 17.455l-10.597-10.032h10.597v10.032zM31.746 21.923h-11.81v-11.545h0.835v10.764h10.975v0.782zM22.725 26.72l-0.436 0.898-0.436-0.898h-0.366l0.637 1.198v0.698h0.331v-0.698l0.635-1.198h-0.365zM23.273 28.615l0.154-0.441h0.734l0.155 0.441h0.344l-0.717-1.896h-0.296l-0.716 1.896h0.342zM23.794 27.122l0.275 0.786h-0.549l0.275-0.786zM25.531 27.863c-0.048 0.073-0.072 0.153-0.072 0.241 0 0.16 0.056 0.29 0.168 0.389s0.263 0.148 0.451 0.148 0.349-0.051 0.484-0.152l0.107 0.126h0.367l-0.279-0.329c0.109-0.149 0.164-0.341 0.164-0.574h-0.275c0 0.128-0.026 0.243-0.079 0.348l-0.366-0.432 0.129-0.094c0.091-0.066 0.157-0.132 0.197-0.198s0.060-0.14 0.060-0.219c0-0.12-0.044-0.22-0.133-0.301s-0.201-0.122-0.339-0.122c-0.153 0-0.274 0.043-0.365 0.13s-0.135 0.203-0.135 0.352c0 0.061 0.014 0.124 0.043 0.189s0.081 0.144 0.155 0.237c-0.141 0.101-0.235 0.188-0.283 0.262zM26.386 28.282c-0.093 0.071-0.193 0.107-0.299 0.107-0.095 0-0.17-0.027-0.227-0.082s-0.085-0.126-0.085-0.214c0-0.102 0.052-0.192 0.156-0.271l0.040-0.029 0.414 0.488zM26.046 27.442c-0.089-0.11-0.134-0.202-0.134-0.275 0-0.063 0.018-0.116 0.055-0.158s0.085-0.063 0.147-0.063c0.057 0 0.105 0.018 0.142 0.053s0.056 0.077 0.056 0.126c0 0.075-0.027 0.136-0.081 0.184l-0.040 0.033-0.145 0.099zM29.132 28.472c0.13-0.114 0.205-0.272 0.224-0.474h-0.328c-0.017 0.135-0.059 0.232-0.124 0.29s-0.162 0.087-0.292 0.087c-0.142 0-0.249-0.054-0.323-0.161s-0.109-0.264-0.109-0.469v-0.168c0.002-0.202 0.041-0.355 0.117-0.46s0.188-0.158 0.331-0.158c0.123 0 0.217 0.030 0.28 0.091s0.104 0.158 0.12 0.294h0.328c-0.021-0.207-0.095-0.368-0.223-0.482s-0.296-0.171-0.505-0.171c-0.155 0-0.293 0.037-0.411 0.111s-0.209 0.179-0.272 0.315c-0.063 0.136-0.095 0.294-0.095 0.473v0.177c0.003 0.174 0.035 0.328 0.098 0.46s0.151 0.234 0.266 0.306c0.115 0.071 0.249 0.107 0.4 0.107 0.216 0 0.389-0.056 0.52-0.169zM31.068 28.206c0.064-0.141 0.096-0.304 0.096-0.49v-0.105c-0.001-0.185-0.034-0.347-0.099-0.486s-0.158-0.247-0.277-0.32c-0.119-0.075-0.256-0.112-0.41-0.112s-0.292 0.038-0.411 0.113c-0.119 0.075-0.211 0.183-0.277 0.324s-0.098 0.305-0.098 0.49v0.107c0.001 0.181 0.034 0.342 0.099 0.48s0.159 0.246 0.279 0.322c0.121 0.075 0.258 0.112 0.411 0.112 0.155 0 0.293-0.037 0.411-0.112s0.212-0.183 0.276-0.323zM30.716 27.135c0.080 0.112 0.12 0.273 0.12 0.483v0.099c0 0.214-0.040 0.376-0.119 0.487s-0.19 0.167-0.336 0.167c-0.144 0-0.257-0.057-0.339-0.171s-0.121-0.275-0.121-0.483v-0.109c0.002-0.204 0.043-0.362 0.122-0.473s0.192-0.168 0.335-0.168c0.146 0 0.258 0.056 0.337 0.168z" />
        </symbol>
        <symbol id="icon-logo-2" viewBox="0 0 57 32">
            <path
                d="M26.727 3.165h-.073c-.112-.007-.224-.01-.336-.012v0h-.243c-.212 0-.428.005-.642.016-.016-.001-.032-.001-.049 0-1.944.11-3.848.596-5.609 1.431l-.231.111v11.809l.54-.183c.474-.163.978-.309 1.5-.445 1.411-.362 2.861-.555 4.317-.574v1.551c-.193.001-.38.007-.568.016h-.045c-1.121.061-2.233.232-3.322.51-1.378.345-2.708.863-3.957 1.542v-15.145c1.298-.757 2.695-1.325 4.151-1.688 1.278-.33 2.593-.5 3.913-.504h.228c.273.007.538.019.788.038.658.046 1.31.15 1.95.311v1.527c-.621-.145-1.253-.24-1.889-.285-.013-.001-.026-.002-.039-.003-.132-.011-.263-.022-.386-.022zM29.415 4.726c.339.026.689.038 1.044.038 1.388-.005 2.769-.182 4.114-.528 1.378-.346 2.706-.865 3.956-1.543v14.875c-1.298.756-2.696 1.325-4.153 1.688-1.279.329-2.593.498-3.913.503-1 .008-1.997-.11-2.968-.35v-14.971c.229.053.465.102.706.142.394.066.81.115 1.214.145zM36.985 4.841l-.54.182c-.497.167-.997.316-1.5.449-1.465.377-2.971.57-4.483.575-.352 0-.676-.01-.989-.03l-.43-.028v12.148l.37.033c.343.03.696.045 1.052.045 1.191-.005 2.377-.159 3.531-.457.95-.238 1.874-.57 2.759-.991l.231-.111v-11.813zM19.06 24.113c-.078-.08-.171-.144-.274-.186s-.214-.061-.326-.057c-.119-.002-.237.021-.347.065-.101.04-.193.101-.27.178s-.135.17-.174.271c-.042.107-.063.22-.062.335v2.023c-.005.143.022.284.08.415.048.104.117.196.202.271.081.068.176.117.278.144.098.028.2.042.302.042.113.001.224-.023.326-.07.101-.044.193-.108.27-.187.075-.079.135-.171.177-.271.043-.102.065-.212.065-.323v-.226h-.529v.18c.002.062-.009.123-.031.18-.017.043-.043.082-.077.114-.033.026-.07.046-.111.058-.036.012-.073.018-.111.019-.047.006-.095-.002-.139-.021s-.081-.049-.11-.088c-.05-.081-.074-.176-.07-.271v-1.887c-.003-.105.019-.208.065-.302.027-.043.066-.077.112-.098s.097-.03.147-.024c.046-.002.091.008.132.028s.077.049.104.086c.059.078.09.173.088.271v.175h.524v-.206c.001-.121-.021-.241-.065-.354-.039-.106-.099-.203-.177-.285zM22.202 24.09c-.169-.142-.381-.221-.602-.222-.108 0-.215.02-.316.057-.103.037-.198.093-.279.165-.088.079-.158.175-.205.283-.053.124-.079.257-.077.392v1.941c-.004.137.023.272.077.397.048.104.118.197.205.271.081.075.176.133.279.171.101.037.208.056.316.057s.215-.02.316-.057c.105-.038.202-.096.286-.171.084-.076.152-.168.2-.271.054-.125.081-.261.077-.397v-1.941c.003-.135-.024-.268-.077-.392-.047-.107-.115-.203-.2-.283zM21.955 26.706c.004.052-.003.104-.021.152s-.047.092-.084.128c-.07.059-.158.091-.249.091s-.179-.032-.249-.091c-.037-.036-.066-.08-.084-.128s-.025-.101-.021-.152v-1.941c-.004-.052.003-.104.021-.152s.047-.092.084-.128c.07-.059.158-.091.249-.091s.179.032.249.091c.037.036.066.08.084.128s.025.101.021.152v1.941zM26.329 27.573v-3.674h-.509l-.668 1.945h-.009l-.673-1.945h-.503v3.674h.525v-2.235h.009l.514 1.58h.262l.518-1.58h.009v2.235h.525zM29.311 24.157c-.081-.091-.183-.16-.297-.201-.123-.04-.251-.059-.38-.057h-.78v3.674h.523v-1.435h.27c.163.007.326-.027.472-.1.119-.066.218-.163.287-.281.061-.098.101-.206.12-.32.021-.138.03-.278.028-.418.005-.176-.012-.353-.051-.525-.035-.127-.101-.243-.193-.338zM29.041 25.277c-.002.067-.019.132-.049.191-.03.056-.077.102-.135.129-.078.035-.162.05-.247.046h-.239v-1.249h.27c.081-.004.162.012.236.046.054.031.097.079.123.136.029.065.044.134.046.205 0 .077 0 .159 0 .244s.005.174 0 .252h-.005zM31.791 23.899h-.429l-.809 3.674h.523l.154-.789h.714l.154.789h.524l-.83-3.674zM31.308 26.283l.258-1.332h.009l.256 1.332h-.524zM35.173 26.112h-.009l-.791-2.213h-.503v3.674h.523v-2.209h.011l.8 2.209h.492v-3.674h-.523v2.213zM38.372 23.899l-.421 1.461h-.011l-.421-1.461h-.554l.719 2.121v1.553h.524v-1.553l.719-2.121h-.554zM17.6 28.61h.252v.708h.171v-.708h.251v-.145h-.675v.145zM19.721 28.465l-.331.853h.182l.07-.194h.34l.073.194h.186l-.339-.853h-.182zM19.694 28.981l.116-.316.116.316h-.232zM21.818 29.004h.197v.11c-.058.046-.129.071-.202.072-.034.002-.069-.004-.1-.019s-.059-.036-.081-.063c-.045-.065-.068-.143-.063-.222 0-.19.082-.285.246-.285.043-.004.086.007.121.032s.061.062.072.104l.169-.033c-.036-.167-.156-.251-.362-.251-.11-.003-.216.036-.298.11-.043.042-.076.094-.097.15s-.03.117-.025.178c-.005.117.034.231.109.32.042.043.092.077.148.098s.116.031.176.027c.134.004.263-.045.362-.136v-.336h-.37v.144zM23.959 28.465h-.173v.853h.598v-.145h-.425v-.708zM25.769 28.465h-.173v.853h.173v-.853zM27.539 29.035l-.349-.57h-.167v.853h.161v-.557l.343.557h.171v-.853h-.158v.57zM29.14 28.943h.425v-.145h-.425v-.187h.457v-.145h-.63v.853h.648v-.145h-.475v-.231zM33.02 28.802h-.336v-.336h-.171v.853h.171v-.373h.336v.373h.171v-.853h-.171v.336zM34.629 28.943h.426v-.145h-.426v-.187h.459v-.145h-.63v.853h.646v-.145h-.475v-.231zM36.812 28.943c.148-.023.224-.102.224-.237.004-.036-.001-.073-.016-.106s-.038-.062-.068-.083c-.077-.039-.163-.056-.25-.05h-.362v.853h.171v-.357h.034c.037-.002.073.004.107.019.025.015.046.037.061.062l.186.271h.205l-.104-.167c-.046-.082-.111-.153-.189-.205zM36.64 28.825h-.127v-.214h.135c.059-.005.118.002.174.02.012.011.022.025.029.04s.009.032.009.049c-.001.017-.005.033-.013.048s-.019.027-.032.037c-.056.017-.115.024-.174.02zM38.458 28.943h.425v-.145h-.425v-.187h.459v-.145h-.631v.853h.648v-.145h-.475v-.231z" />
        </symbol>
        <symbol id="icon-logo-3" viewBox="0 0 57 32">
            <path
                d="M19.417 26.187c.008 0 .017.002.025.005s.015.007.02.013l.116.111c-.09.09-.202.162-.327.211-.147.053-.305.079-.464.076-.149.003-.298-.021-.436-.071-.125-.045-.237-.113-.329-.2-.094-.089-.166-.194-.212-.308-.051-.127-.076-.261-.074-.396-.002-.135.025-.27.08-.397.051-.115.127-.22.225-.308.099-.087.218-.155.349-.201.143-.048.296-.072.449-.071.143-.003.285.019.417.064.115.043.221.104.313.178l-.097.119c-.007.008-.015.016-.025.021-.012.007-.025.01-.039.009-.015-.001-.03-.005-.042-.013l-.052-.032-.073-.04c-.031-.015-.064-.028-.097-.039-.043-.013-.087-.024-.132-.032-.057-.009-.115-.013-.173-.013-.111-.001-.22.017-.323.053-.096.034-.182.084-.253.149-.073.069-.128.15-.164.238-.041.101-.061.207-.06.313-.002.108.018.216.06.318.035.087.09.167.161.236.067.064.149.114.241.147.095.034.197.051.3.05.059.001.119-.003.177-.01.096-.01.188-.039.269-.085.041-.023.079-.049.115-.078.015-.012.035-.02.055-.02zM22.776 25.629c.002.134-.025.267-.078.393-.047.114-.122.218-.219.305s-.214.155-.344.2c-.285.094-.599.094-.884 0-.129-.046-.245-.114-.342-.201-.097-.089-.172-.194-.221-.308-.105-.255-.105-.533 0-.787.05-.115.125-.22.221-.31.097-.084.214-.15.342-.193.284-.096.6-.096.884 0 .129.046.246.114.343.201.096.088.17.191.22.304.054.127.08.261.078.395zM22.47 25.629c.002-.107-.016-.214-.055-.316-.033-.087-.086-.168-.156-.236-.068-.065-.152-.116-.246-.149-.207-.069-.436-.069-.643 0-.094.033-.178.084-.246.149-.071.068-.125.149-.157.236-.074.206-.074.426 0 .632.033.087.086.168.157.236.068.065.152.115.246.148.207.067.435.067.643 0 .093-.033.177-.083.246-.148.07-.069.123-.149.156-.236.039-.102.058-.209.055-.316zM25.067 25.96l.03.071c.012-.025.022-.048.033-.071.011-.024.024-.047.038-.07l.743-1.174c.015-.02.028-.033.042-.037.02-.005.04-.007.061-.006h.22v1.909h-.26v-1.404c0-.018 0-.038 0-.059-.001-.022-.001-.044 0-.066l-.747 1.19c-.009.018-.025.033-.044.043s-.041.016-.064.016h-.042c-.023 0-.045-.005-.064-.016s-.034-.026-.044-.044l-.769-1.198c0 .023 0 .046 0 .068s0 .043 0 .061v1.404h-.252v-1.905h.22c.021-.001.041.001.061.006.018.008.032.021.041.037l.759 1.175c.015.022.028.045.038.068zM27.864 25.865v.715h-.291v-1.906h.649c.122-.002.244.012.362.042.094.023.181.064.256.119.065.052.114.116.145.187.034.078.051.161.049.244.001.084-.017.167-.054.244-.035.073-.089.138-.157.191-.075.057-.162.1-.257.126-.113.031-.232.046-.35.044l-.352-.005zM27.864 25.66h.352c.076.001.153-.009.225-.029.06-.018.115-.046.163-.082.044-.035.078-.078.099-.126.024-.051.036-.105.035-.16.003-.053-.007-.106-.029-.155s-.057-.094-.102-.13c-.111-.075-.251-.112-.391-.102h-.352v.786zM31.772 26.583h-.23c-.023.001-.046-.006-.064-.018-.017-.012-.029-.027-.038-.044l-.198-.461h-.993l-.205.461c-.008.017-.02.032-.036.043-.018.013-.042.02-.065.019h-.23l.872-1.909h.302l.884 1.909zM30.333 25.874h.82l-.346-.777c-.026-.058-.048-.118-.065-.179l-.034.1c-.01.03-.022.058-.032.081l-.343.776zM33.029 24.682c.017.008.032.02.044.034l1.272 1.439c0-.023 0-.046 0-.067s0-.043 0-.063v-1.352h.26v1.909h-.145c-.021.001-.041-.003-.06-.011-.018-.009-.034-.021-.047-.035l-1.271-1.438c.001.022.001.044 0 .066 0 .021 0 .04 0 .058v1.361h-.26v-1.909h.154c.018 0 .036.003.052.009zM36.748 25.823v.758h-.291v-.758l-.804-1.15h.26c.022-.001.045.005.063.016.016.012.029.027.039.043l.503.742c.02.032.038.061.052.088s.026.054.036.081l.038-.082c.014-.03.031-.059.049-.087l.496-.747c.01-.015.023-.028.038-.04.017-.013.04-.02.063-.019h.263l-.806 1.155zM24.923 21.47c.127.014.255.025.384.035 1.962-.763 3.622-2.011 4.772-3.588s1.74-3.415 1.695-5.282l-2.162-1.879c.44 1.988.234 4.043-.594 5.935s-2.245 3.547-4.094 4.779z" />
            <path
                d="m24.151 21.383.058.01c1.975-1.228 3.482-2.942 4.323-4.921s.981-4.133.4-6.181l-3.08-2.676c1.246 2.2 1.747 4.661 1.446 7.098s-1.393 4.75-3.147 6.67zM34.596 14.841c-.523 2.052-1.794 3.902-3.624 5.276-.534.404-1.111.763-1.722 1.074 1.49-.38 2.859-1.053 4.003-1.966s2.03-2.042 2.592-3.3l-1.249-1.084z" />
            <path
                d="m34.106 14.539-1.778-1.545c-.034 1.762-.61 3.483-1.669 4.986s-2.562 2.731-4.352 3.559h.009c.399 0 .798-.021 1.194-.062 1.673-.593 3.151-1.537 4.303-2.748s1.94-2.65 2.295-4.189zM24.409 6.486l-2.122-1.846c-1.897.637-3.528 1.756-4.68 3.212s-1.772 3.179-1.778 4.946v0c.007 1.952.763 3.846 2.149 5.383s3.322 2.628 5.501 3.101c1.946-2.06 3.085-4.605 3.252-7.266s-.647-5.299-2.323-7.53zM39.008 14.255c-.008-2.316-1.07-4.535-2.955-6.173s-4.439-2.561-7.105-2.567c-1.232-.001-2.453.196-3.602.582l12.99 11.286c.445-.998.673-2.058.672-3.128z" />
        </symbol>
        <symbol id="icon-logo-4" viewBox="0 0 57 32">
            <path
                d="M12.878 11.255h-.002c-1.279 0-2.316.921-2.316 2.058v.001c0 1.137 1.037 2.058 2.316 2.058h.002c1.279 0 2.316-.921 2.316-2.058v-.001c0-1.137-1.037-2.058-2.316-2.058zM29.971 10.597c-.004-1.579-.711-3.092-1.967-4.208s-2.958-1.745-4.735-1.749v0c-1.777.003-3.48.631-4.737 1.748s-1.964 2.63-1.968 4.209v8.706c0 0 13.405-1.327 13.406-8.704v-.001zM5.867 22.16c.003 1.098.496 2.151 1.369 2.928s2.058 1.215 3.294 1.218c1.236-.003 2.42-.441 3.294-1.218s1.366-1.829 1.37-2.927v-6.057c0 0-9.327.924-9.327 6.056zM10.53 23.245c-.242 0-.478-.064-.678-.183s-.357-.289-.45-.487c-.092-.198-.117-.417-.069-.627s.163-.404.334-.556c.171-.152.388-.255.625-.297s.482-.02.706.062c.223.082.414.221.548.4s.206.388.206.603c.001.143-.031.284-.092.417s-.151.252-.264.353c-.114.101-.248.182-.397.236s-.308.083-.468.083v-.004zM19.956 22.647h-.9v.93h-.469v-2.275h1.481v.38h-1.012v.588h.9v.378zM22.209 22.491c0 .224-.04.42-.119.589s-.193.299-.341.391c-.147.092-.316.137-.506.137-.189 0-.357-.045-.505-.136s-.262-.22-.344-.387c-.081-.169-.122-.363-.123-.581v-.112c0-.224.04-.421.12-.591.081-.171.195-.302.342-.392.148-.092.317-.137.506-.137s.358.046.505.137c.148.091.262.221.342.392.081.17.122.366.122.589v.102zM21.734 22.388c0-.238-.043-.42-.128-.544s-.207-.186-.366-.186c-.157 0-.279.061-.364.184-.085.122-.129.301-.13.538v.111c0 .232.043.412.128.541s.208.192.369.192c.157 0 .278-.061.363-.184.084-.124.127-.304.128-.541v-.111zM23.73 22.98c0-.089-.031-.156-.094-.203-.063-.048-.175-.098-.337-.15-.163-.053-.291-.105-.386-.156-.258-.14-.387-.328-.387-.564 0-.123.034-.232.103-.328.07-.097.169-.172.298-.227.13-.054.276-.081.438-.081.163 0 .307.03.434.089.127.058.226.141.295.248s.106.229.106.366h-.469c0-.104-.033-.185-.098-.242s-.158-.087-.277-.087c-.115 0-.204.024-.267.073-.064.048-.095.111-.095.191 0 .074.037.136.111.186.075.05.185.097.33.141.267.08.461.18.583.298s.183.267.183.444c0 .197-.075.352-.223.464-.149.111-.349.167-.602.167-.175 0-.334-.032-.478-.095-.144-.065-.254-.153-.33-.264s-.113-.241-.113-.388h.47c0 .251.15.377.45.377.111 0 .198-.022.261-.067.063-.046.094-.109.094-.191zM26.231 21.682h-.697v1.895h-.469v-1.895h-.687v-.38h1.853v.38zM27.869 22.591h-.9v.609h1.056v.377h-1.525v-2.275h1.522v.38h-1.053v.542h.9v.367zM29.142 22.744h-.373v.833h-.469v-2.275h.845c.269 0 .476.06.622.18s.219.289.219.508c0 .155-.034.285-.102.389-.067.103-.168.185-.305.247l.492.93v.022h-.503l-.427-.833zM28.769 22.365h.378c.118 0 .209-.03.273-.089.065-.06.097-.143.097-.248 0-.107-.031-.192-.092-.253-.06-.061-.154-.092-.28-.092h-.377v.683zM31.609 22.775v.802h-.469v-2.275h.887c.171 0 .321.031.45.094s.23.152.3.267c.07.115.105.245.105.392 0 .223-.077.399-.23.528-.152.128-.363.192-.633.192h-.411zM31.609 22.396h.419c.124 0 .218-.029.283-.088.066-.058.098-.142.098-.25 0-.111-.033-.202-.098-.27s-.156-.104-.272-.106h-.43v.714zM34.575 22.591h-.9v.609h1.056v.377h-1.525v-2.275h1.522v.38h-1.053v.542h.9v.367zM36.75 21.682h-.697v1.895h-.469v-1.895h-.688v-.38h1.853v.38zM38.387 22.591h-.9v.609h1.056v.377h-1.525v-2.275h1.522v.38h-1.053v.542h.9v.367zM39.661 22.744h-.373v.833h-.469v-2.275h.845c.269 0 .476.06.622.18s.219.289.219.508c0 .155-.034.285-.102.389-.067.103-.168.185-.305.247l.492.93v.022h-.503l-.427-.833zM39.287 22.365h.378c.118 0 .209-.03.273-.089.065-.06.097-.143.097-.248 0-.107-.031-.192-.092-.253-.06-.061-.154-.092-.28-.092h-.377v.683zM42.042 22.98c0-.089-.031-.156-.094-.203-.063-.048-.175-.098-.337-.15-.163-.053-.291-.105-.386-.156-.258-.14-.388-.328-.388-.564 0-.123.034-.232.103-.328.07-.097.169-.172.298-.227.13-.054.276-.081.438-.081.163 0 .307.03.434.089.127.058.226.141.295.248.071.107.106.229.106.366h-.469c0-.104-.033-.185-.098-.242s-.158-.087-.277-.087c-.115 0-.204.024-.267.073-.064.048-.095.111-.095.191 0 .074.037.136.111.186.075.05.185.097.33.141.267.08.461.18.583.298s.183.267.183.444c0 .197-.074.352-.223.464-.149.111-.349.167-.602.167-.175 0-.334-.032-.478-.095-.144-.065-.254-.153-.33-.264-.075-.111-.112-.241-.112-.388h.47c0 .251.15.377.45.377.111 0 .198-.022.261-.067.063-.046.094-.109.094-.191z" />
        </symbol>
        <symbol id="icon-logo-5" viewBox="0 0 57 32">
            <path
                d="M14.27 23.859c.13.147.199.332.196.521.007.123-.017.247-.07.361s-.132.216-.233.297c-.252.175-.565.26-.881.24h-1.549v-3.302h1.517c.299-.018.596.059.84.219.098.075.176.17.227.277s.074.224.068.341c.009.182-.054.361-.176.505-.118.131-.28.222-.462.258.205.034.391.134.523.282zM12.454 23.36h.648c.147.01.294-.029.412-.11.049-.04.087-.09.111-.146s.034-.116.028-.176c.005-.06-.005-.12-.029-.175s-.061-.106-.108-.147c-.122-.083-.273-.123-.425-.111h-.638v.866zM13.578 24.627c.052-.041.093-.093.12-.151s.038-.121.034-.184c.004-.064-.008-.127-.035-.186s-.069-.111-.121-.153c-.127-.086-.283-.128-.44-.119h-.68v.908h.689c.155.008.309-.032.435-.114zM17.371 25.278l-.844-1.291h-.317v1.291h-.726v-3.302h1.374c.346-.022.689.078.957.281.192.179.308.415.327.666s-.061.499-.224.7c-.17.178-.401.296-.655.336l.898 1.32h-.789zM16.21 23.538h.594c.412 0 .618-.167.618-.5.004-.068-.007-.136-.033-.2s-.066-.122-.118-.171c-.13-.099-.298-.147-.467-.134h-.601l.007 1.005zM21.339 24.614h-1.446l-.255.665h-.761l1.328-3.265h.823l1.323 3.265h-.761l-.25-.665zM21.145 24.114l-.529-1.394-.529 1.394h1.057zM26.305 25.278h-.721l-1.616-2.245v2.245h-.719v-3.302h.719l1.616 2.258v-2.258h.721v3.302zM30.417 24.488c-.149.249-.376.452-.652.582-.314.145-.662.217-1.013.208h-1.283v-3.302h1.283c.351-.008.698.061 1.013.203.276.127.503.328.652.576.148.269.226.565.226.866s-.077.598-.226.866zM29.593 24.409c.206-.219.319-.499.319-.788s-.113-.569-.319-.788c-.249-.199-.573-.3-.902-.281h-.5v2.137h.5c.329.019.654-.082.902-.281zM21.79 3.609c0 0 9.301 3.215 9.103 7.867v7.869c0 0-9.294-3.217-9.1-7.869l-.004-7.867zM39.179 17.503c1.757-1.107 3.788-1.792 5.909-1.994v-2.463c-2.444.862-4.517 2.426-5.909 4.457z" />
            <path
                d="M38.124 18.245c1.438-2.651 3.93-4.696 6.964-5.715v-7.098c0 0-13.245 4.58-12.965 11.205v11.203c0 0 0.59-0.205 1.519-0.589 0-0.358 0-0.719 0.042-1.082 0.274-3.076 1.871-5.926 4.44-7.924z" />
            <path
                d="M36.864 22.407c.07-.777.225-1.546.463-2.294-1.599 1.725-2.568 3.866-2.77 6.122-.019.213-.03.426-.035.645.752-.331 1.628-.744 2.548-1.229-.235-1.067-.304-2.159-.206-3.244zM37.391 22.447c-.088.982-.033 1.969.164 2.938 3.619-1.983 7.685-5.046 7.528-8.748v-.323c-2.585.265-5.004 1.3-6.885 2.946-.44 1.02-.712 2.094-.807 3.188z" />
        </symbol>
        <symbol id="icon-logo-6" viewBox="0 0 57 32">
            <path
                d="M28.493 14.618c-.236-.315-.349-.686-.323-1.061v-1.538c0-.471.107-.83.321-1.075s.581-.367 1.102-.366c.489 0 .836.104 1.042.313.224.266.333.592.308.92v.361h-.875v-.366c.003-.12-.005-.24-.025-.358-.013-.081-.057-.156-.125-.213-.09-.061-.203-.091-.317-.083-.12-.008-.239.024-.333.088-.076.063-.127.145-.145.235-.025.126-.037.253-.034.38v1.866c-.014.18.025.36.112.524.044.055.104.099.175.127s.149.038.226.029c.112.008.223-.022.31-.084.071-.061.117-.141.13-.227.02-.124.03-.249.027-.374v-.379h.875v.346c.025.342-.082.682-.303.967-.201.228-.544.343-1.047.343s-.884-.122-1.1-.375zM32.137 14.633c-.221-.239-.332-.588-.332-1.05v-1.617c0-.457.11-.802.332-1.037s.591-.351 1.109-.35c.515 0 .882.117 1.103.35.221.235.333.58.333 1.037v1.617c0 .457-.112.807-.337 1.048s-.591.361-1.1.361c-.509 0-.886-.122-1.109-.36zM33.654 14.245c.079-.15.115-.314.105-.479v-1.98c.01-.161-.025-.322-.103-.469-.044-.057-.106-.101-.179-.129s-.152-.037-.231-.027c-.079-.009-.159 0-.231.028s-.135.072-.18.129c-.08.146-.116.308-.105.469v1.99c-.011.165.025.329.105.479.051.05.114.091.185.119s.147.042.225.042c.078 0 .154-.014.225-.042s.134-.068.185-.119v-.009zM35.735 10.626h.942l.708 2.984.725-2.984h.917l.092 4.308h-.678l-.072-2.994-.699 2.994h-.544l-.725-3.005-.067 3.005h-.685l.085-4.308zM40.176 10.626h1.468c.846 0 1.268.408 1.268 1.223 0 .781-.445 1.171-1.335 1.17h-.5v1.915h-.906l.005-4.308zM41.43 12.467c.09.01.18.003.266-.021s.165-.063.232-.115c.104-.146.15-.316.13-.486.005-.131-.01-.263-.044-.391-.013-.043-.036-.083-.067-.118s-.07-.065-.114-.087c-.126-.052-.265-.076-.404-.069h-.352v1.287h.352zM44.218 10.626h.973l.998 4.308h-.844l-.197-.993h-.868l-.203.993h-.857l.998-4.308zM45.05 13.441l-.339-1.808-.339 1.808h.678zM46.996 10.626h.634l1.214 2.457v-2.457h.752v4.308h-.603l-1.221-2.565v2.565h-.777l.002-4.308zM51.357 13.291l-1.009-2.659h.85l.616 1.708.578-1.708h.832l-.997 2.659v1.642h-.87v-1.642zM29.892 16.817v.225h-.739v1.75h-.31v-1.75h-.743v-.225h1.792zM32.209 18.793h-.239c-.024.001-.048-.005-.067-.019-.018-.011-.032-.027-.04-.045l-.214-.469h-1.026l-.214.469c-.006.02-.017.038-.033.053-.019.013-.043.02-.067.019h-.239l.906-1.976h.315l.917 1.968zM30.709 18.059h.855l-.362-.804c-.027-.061-.049-.123-.067-.186-.013.038-.024.073-.034.105l-.033.083-.359.802zM33.771 18.599c.057.003.114.003.17 0 .049-.004.097-.012.145-.023.044-.009.088-.021.13-.036.04-.014.08-.031.121-.048v-.444h-.362c-.009 0-.018-.001-.026-.003s-.016-.007-.023-.012c-.006-.004-.011-.01-.014-.016s-.005-.013-.004-.02v-.152h.703v.757c-.057.035-.118.067-.181.094-.065.028-.132.05-.201.067-.074.019-.15.032-.227.041-.088.008-.176.013-.264.012-.156.001-.311-.024-.457-.073-.136-.047-.259-.117-.362-.206-.101-.09-.18-.196-.234-.313-.057-.131-.085-.27-.083-.41-.002-.141.026-.281.082-.413.052-.117.132-.224.234-.313.103-.089.227-.159.362-.205.155-.05.32-.075.486-.074.084 0 .169.006.252.017.074.01.146.027.216.05.063.021.124.047.181.078.056.031.108.065.158.103l-.087.122c-.007.011-.017.021-.029.027s-.027.01-.041.01c-.02-.001-.04-.006-.056-.016-.027-.013-.056-.028-.089-.047-.038-.021-.079-.039-.121-.053-.054-.019-.11-.033-.167-.044-.076-.012-.153-.018-.23-.017-.12-.001-.238.017-.35.055-.101.035-.192.088-.266.156-.075.071-.132.155-.169.246-.081.214-.081.445 0 .659.04.093.101.178.181.249.074.068.164.121.265.156.115.034.237.047.359.039zM36.659 18.567h.989v.225h-1.292v-1.976h.31l-.007 1.75zM38.678 18.792h-.31v-1.976h.31v1.976zM39.83 16.826c.018.009.034.021.047.036l1.324 1.489c-.002-.023-.002-.047 0-.07 0-.022 0-.044 0-.064v-1.408h.27v1.984h-.156c-.023.002-.046-.002-.067-.011-.019-.01-.035-.023-.049-.038l-1.323-1.488c0 .023 0 .045 0 .067s0 .042 0 .061v1.408h-.259v-1.976h.161c.017 0 .035.003.051.009zM43.753 16.817v.217h-1.098v.652h.89v.21h-.89v.674h1.098v.217h-1.417v-1.971h1.417zM11.286 4.616l13.757 3.372v11.818l-13.757-3.371v-11.819zM10.404 3.609v13.401l15.52 3.806v-13.399l-15.52-3.807z" />
            <path
                d="m18.722 27.036-15.522-3.809v-13.399l15.522 3.807v13.401zM10.661 4.465l13.578 3.33-5.774 4.987-13.58-3.332 5.776-4.985zM10.404 3.609l-7.204 6.219 15.522 3.807 7.202-6.219-15.52-3.807zM19.595 26.282l6.329-5.465-6.329-1.553v7.018z" />
        </symbol>
        <symbol id="icon-mail" viewBox="0 0 39 32">
            <path
                d="M35.692 2.433h-32c-2.036 0-3.692 1.656-3.692 3.691v22.146c0 2.035 1.656 3.691 3.692 3.691h32c2.036 0 3.692-1.656 3.692-3.691v-22.146c0-2.035-1.656-3.691-3.692-3.691zM35.692 4.894c0.167 0 0.326 0.035 0.472 0.095l-16.472 14.271-16.472-14.271c0.145-0.060 0.305-0.095 0.472-0.095h32zM35.692 29.501h-32c-0.679 0-1.231-0.551-1.231-1.23v-20.682l16.424 14.23c0.232 0.201 0.519 0.3 0.806 0.3s0.575-0.1 0.806-0.3l16.424-14.229v20.682c0 0.679-0.552 1.23-1.231 1.23z" />
        </symbol>
        <symbol id="icon-phone" viewBox="0 0 19 32">
            <path
                d="M16 1.862h-13.176c-1.557 0-2.824 1.266-2.824 2.823v24.462c0 1.556 1.267 2.822 2.824 2.822h13.176c1.557 0 2.824-1.266 2.824-2.822v-24.462c0-1.556-1.267-2.823-2.824-2.823zM2.824 3.743h13.176c0.519 0 0.941 0.422 0.941 0.941v19.758h-15.059v-19.758c0-0.519 0.422-0.941 0.941-0.941zM16 30.087h-13.176c-0.519 0-0.941-0.422-0.941-0.941v-2.823h15.059v2.823c0 0.519-0.422 0.941-0.941 0.941z" />
            <path
                d="M4.43 27.714c0.368 0.343 0.368 0.9 0 1.243s-0.963 0.343-1.331 0c-0.368-0.343-0.368-0.9 0-1.243s0.963-0.343 1.331 0z" />
        </symbol>
        <symbol id="icon-twitter" viewBox="0 0 32 32">
            <path
                d="M32 6.078c-1.19 0.522-2.458 0.868-3.78 1.036 1.36-0.812 2.398-2.088 2.886-3.626-1.268 0.756-2.668 1.29-4.16 1.588-1.204-1.282-2.92-2.076-4.792-2.076-3.632 0-6.556 2.948-6.556 6.562 0 0.52 0.044 1.020 0.152 1.496-5.454-0.266-10.28-2.88-13.522-6.862-0.566 0.982-0.898 2.106-0.898 3.316 0 2.272 1.17 4.286 2.914 5.452-1.054-0.020-2.088-0.326-2.964-0.808 0 0.020 0 0.046 0 0.072 0 3.188 2.274 5.836 5.256 6.446-0.534 0.146-1.116 0.216-1.72 0.216-0.42 0-0.844-0.024-1.242-0.112 0.85 2.598 3.262 4.508 6.13 4.57-2.232 1.746-5.066 2.798-8.134 2.798-0.538 0-1.054-0.024-1.57-0.090 2.906 1.874 6.35 2.944 10.064 2.944 12.072 0 18.672-10 18.672-18.668 0-0.29-0.010-0.57-0.024-0.848 1.302-0.924 2.396-2.078 3.288-3.406z" />
        </symbol>
        <symbol id="icon-close-btn" viewBox="0 0 32 32">
            <path
                d="M26.667 7.303l-1.97-1.97-7.808 7.808-7.808-7.808-1.97 1.97 7.808 7.808-7.808 7.808 1.97 1.97 7.808-7.808 7.808 7.808 1.97-1.97-7.808-7.808 7.808-7.808z">
            </path>
        </symbol>
        <symbol id="icon-email-black" viewBox="0 0 32 32">
            <path
                d="M26.667 5.333h-21.333c-1.467 0-2.653 1.2-2.653 2.667l-0.013 16c0 1.467 1.2 2.667 2.667 2.667h21.333c1.467 0 2.667-1.2 2.667-2.667v-16c0-1.467-1.2-2.667-2.667-2.667zM26.133 11l-9.427 5.893c-0.427 0.267-0.987 0.267-1.413 0l-9.427-5.893c-0.333-0.213-0.533-0.573-0.533-0.96 0-0.893 0.973-1.427 1.733-0.96l8.933 5.587 8.933-5.587c0.76-0.467 1.733 0.067 1.733 0.96 0 0.387-0.2 0.747-0.533 0.96z">
            </path>
        </symbol>
        <symbol id="icon-check" viewBox="0 0 42 32">
            <path stroke-linejoin="miter" stroke-linecap="butt" stroke-miterlimit="4" stroke-width="0.64"
                d="M6.263 15.205l-0.22-0.21-3.307 3.132 11.651 11.114 24.477-23.351-3.285-3.134-21.192 20.197-8.124-7.75z">
            </path>
        </symbol>
        <symbol id="icon-send" viewBox="0 0 31 32">
            <path
                d="M30.72 0.057l-30.72 17.274 9.818 3.635 15.142-14.191-11.518 15.533 0.009 0.004-0.012-0.004v8.459l5.506-6.421 6.974 2.582 4.8-26.871z">
            </path>
        </symbol>
        <symbol id="icon-person-black" viewBox="0 0 32 32">
            <path
                d="M16 16c2.947 0 5.333-2.387 5.333-5.333s-2.387-5.333-5.333-5.333c-2.947 0-5.333 2.387-5.333 5.333s2.387 5.333 5.333 5.333zM16 18.667c-3.56 0-10.667 1.787-10.667 5.333v1.333c0 0.733 0.6 1.333 1.333 1.333h18.667c0.733 0 1.333-0.6 1.333-1.333v-1.333c0-3.547-7.107-5.333-10.667-5.333z">
            </path>
        </symbol>
        <symbol id="icon-phone-black" viewBox="0 0 32 32">
            <path
                d="M24.882 19.773l-3.268-0.373c-0.785-0.090-1.557 0.18-2.11 0.733l-2.367 2.367c-3.641-1.853-6.626-4.825-8.478-8.478l2.38-2.38c0.553-0.553 0.823-1.325 0.733-2.11l-0.373-3.242c-0.154-1.299-1.248-2.277-2.56-2.277h-2.226c-1.454 0-2.663 1.209-2.573 2.663 0.682 10.987 9.469 19.761 20.443 20.443 1.454 0.090 2.663-1.119 2.663-2.573v-2.226c0.013-1.3-0.965-2.393-2.264-2.547z">
            </path>
        </symbol>
    </defs>
</svg>